# xmcd CD Database Entry
#
# Track frame offsets:
# 150
# 18942
# 41924
# 60586
# 82378
# 101737
# 126784
# 146361
# 174956
# 196233
# 218837
# 248887
#
# Disc length: 3556 seconds
#
# Revision: 3
# Processed by: cddbd v1.4b41PL1 Copyright (c) Steve Scherf et al.
# Submitted via: tcd 2.0b
#
DISCID=a80de20c
DTITLE=Sheryl Crow - The Globe Sessions
DYEAR=1900
DGENRE=
TTITLE0=My favorite mistake
TTITLE1=There goes the neighbourhood
TTITLE2=Riverwide
TTITLE3=It don't hurt
TTITLE4=Maybe that's something
TTITLE5=Am I getting through (Part I and II)
TTITLE6=Anything but down
TTITLE7=The different kind
TTITLE8=Mississppi
TTITLE9=Members only
TTITLE10=Crash and burn
TTITLE11=Resuscitation
EXTD=
EXTT0=
EXTT1=
EXTT2=
EXTT3=
EXTT4=
EXTT5=
EXTT6=
EXTT7=
EXTT8=
EXTT9=
EXTT10=
EXTT11=
PLAYORDER=
